<svg xmlns="http://www.w3.org/2000/svg" fill="none" viewBox="0 0 41.814 41" style="max-height: 500px" width="41.814" height="41">
<mask height="41" width="41" y="0" x="0" maskUnits="userSpaceOnUse" id="mask0">
<circle fill="#FFDFDF" r="20.3998" cy="20.3998" cx="20.3998"/>
</mask>
<g mask="url(#mask0)">
<path fill="#5AB1E1" d="M32.8721 13.601C38.4842 13.601 43.0337 9.05147 43.0337 3.43935C43.0337 -2.17277 38.4842 -6.72229 32.8721 -6.72229C27.26 -6.72229 22.7104 -2.17277 22.7104 3.43935C22.7104 9.05147 27.26 13.601 32.8721 13.601ZM32.8721 9.48361C36.2104 9.48361 38.9165 6.77743 38.9165 3.43918C38.9165 0.10094 36.2104 -2.60524 32.8721 -2.60524C29.5339 -2.60524 26.8277 0.10094 26.8277 3.43918C26.8277 6.77743 29.5339 9.48361 32.8721 9.48361Z" clip-rule="evenodd" fill-rule="evenodd"/>
<path fill="#5AB1E1" d="M28.9151 20.5979C28.8419 24.9128 25.3212 28.3881 20.9888 28.3881C16.6105 28.3881 13.0613 24.8388 13.0613 20.4606C13.0613 16.0824 16.6105 12.5331 20.9888 12.5331C22.5796 12.5331 24.0609 13.0016 25.3023 13.8082L23.0867 16.2362C22.4549 15.9218 21.7425 15.745 20.9888 15.745C18.3845 15.745 16.2733 17.8562 16.2733 20.4605C16.2733 23.0648 18.3845 25.176 20.9888 25.176C23.5471 25.176 25.6296 23.1387 25.7023 20.5979H28.9151Z" clip-rule="evenodd" fill-rule="evenodd"/>
<path fill="#43D5FF" d="M8.04909 13.601C13.6612 13.601 18.2107 9.05147 18.2107 3.43935C18.2107 -2.17277 13.6612 -6.72229 8.04909 -6.72229C2.43697 -6.72229 -2.11255 -2.17277 -2.11255 3.43935C-2.11255 9.05147 2.43697 13.601 8.04909 13.601ZM8.0491 9.48361C11.3873 9.48361 14.0935 6.77743 14.0935 3.43918C14.0935 0.10094 11.3873 -2.60524 8.0491 -2.60524C4.71086 -2.60524 2.00468 0.10094 2.00468 3.43918C2.00468 6.77743 4.71086 9.48361 8.0491 9.48361Z" clip-rule="evenodd" fill-rule="evenodd"/>
<path fill="#63C8C4" d="M20.4606 51.8919C26.0727 51.8919 30.6222 47.3424 30.6222 41.7302C30.6222 36.1181 26.0727 31.5686 20.4606 31.5686C14.8485 31.5686 10.299 36.1181 10.299 41.7302C10.299 47.3424 14.8485 51.8919 20.4606 51.8919ZM20.4606 47.7747C23.7988 47.7747 26.505 45.0685 26.505 41.7302C26.505 38.392 23.7988 35.6858 20.4606 35.6858C17.1223 35.6858 14.4161 38.392 14.4161 41.7302C14.4161 45.0685 17.1223 47.7747 20.4606 47.7747Z" clip-rule="evenodd" fill-rule="evenodd"/>
<path fill="#A0EAFF" d="M0.258808 37.4998C5.87093 37.4998 10.4204 32.9503 10.4204 27.3382C10.4204 21.726 5.87093 17.1765 0.258808 17.1765C-5.35331 17.1765 -9.90283 21.726 -9.90283 27.3382C-9.90283 32.9503 -5.35331 37.4998 0.258808 37.4998ZM0.258812 33.3825C3.59706 33.3825 6.30324 30.6763 6.30324 27.338C6.30324 23.9998 3.59706 21.2936 0.258812 21.2936C-3.07943 21.2936 -5.78561 23.9998 -5.78561 27.338C-5.78561 30.6763 -3.07943 33.3825 0.258812 33.3825Z" clip-rule="evenodd" fill-rule="evenodd"/>
<path fill="#B3ECEA" d="M40.6624 37.4998C46.2745 37.4998 50.824 32.9503 50.824 27.3382C50.824 21.726 46.2745 17.1765 40.6624 17.1765C35.0503 17.1765 30.5007 21.726 30.5007 27.3382C30.5007 32.9503 35.0503 37.4998 40.6624 37.4998ZM40.6624 33.3825C44.0006 33.3825 46.7068 30.6763 46.7068 27.338C46.7068 23.9998 44.0006 21.2936 40.6624 21.2936C37.3242 21.2936 34.618 23.9998 34.618 27.338C34.618 30.6763 37.3242 33.3825 40.6624 33.3825Z" clip-rule="evenodd" fill-rule="evenodd"/>
</g>
<path fill="#5AB1E1" d="M20.8619 19.2773H28.9823L28.7842 21.7861H20.8619V19.2773Z"/>
<path fill="#0C608E" d="M63.8049 12.4898H67.0815V18.7773C66.2402 19.412 65.2661 19.8991 64.1592 20.2385C63.0522 20.578 61.9378 20.7477 60.8161 20.7477C59.2073 20.7477 57.7609 20.4083 56.4768 19.7293C55.1927 19.0356 54.1817 18.0836 53.4437 16.8734C52.7205 15.6483 52.3589 14.2683 52.3589 12.7333C52.3589 11.1983 52.7205 9.82567 53.4437 8.61539C54.1817 7.39035 55.2001 6.43836 56.4989 5.75942C57.7978 5.06572 59.259 4.71887 60.8825 4.71887C62.2404 4.71887 63.4728 4.94764 64.5798 5.40519C65.6868 5.86273 66.6166 6.52691 67.3694 7.39773L65.0669 9.5231C63.9599 8.3571 62.6242 7.7741 61.0596 7.7741C60.0708 7.7741 59.1926 7.98073 58.4251 8.394C57.6576 8.80726 57.0598 9.39027 56.6318 10.143C56.2038 10.8957 55.9897 11.7592 55.9897 12.7333C55.9897 13.6927 56.2038 14.5487 56.6318 15.3015C57.0598 16.0542 57.6502 16.6446 58.4029 17.0726C59.1704 17.4859 60.0412 17.6925 61.0154 17.6925C62.0485 17.6925 62.9784 17.4711 63.8049 17.0283V12.4898Z"/>
<path fill="#0C608E" d="M70.1696 4.05469H73.6234V20.4821H70.1696V4.05469Z"/>
<path fill="#0C608E" d="M82.4964 20.6592C81.2418 20.6592 80.1127 20.4009 79.1091 19.8843C78.1202 19.353 77.3453 18.6224 76.7845 17.6925C76.2236 16.7627 75.9432 15.7074 75.9432 14.5266C75.9432 13.3458 76.2236 12.2905 76.7845 11.3607C77.3453 10.4308 78.1202 9.7076 79.1091 9.19101C80.1127 8.65967 81.2418 8.394 82.4964 8.394C83.751 8.394 84.8727 8.65967 85.8616 9.19101C86.8505 9.7076 87.6253 10.4308 88.1862 11.3607C88.7471 12.2905 89.0275 13.3458 89.0275 14.5266C89.0275 15.7074 88.7471 16.7627 88.1862 17.6925C87.6253 18.6224 86.8505 19.353 85.8616 19.8843C84.8727 20.4009 83.751 20.6592 82.4964 20.6592ZM82.4964 17.8254C83.382 17.8254 84.1052 17.5302 84.6661 16.9398C85.2417 16.3346 85.5295 15.5302 85.5295 14.5266C85.5295 13.5229 85.2417 12.7259 84.6661 12.1355C84.1052 11.5304 83.382 11.2278 82.4964 11.2278C81.6108 11.2278 80.8802 11.5304 80.3046 12.1355C79.729 12.7259 79.4412 13.5229 79.4412 14.5266C79.4412 15.5302 79.729 16.3346 80.3046 16.9398C80.8802 17.5302 81.6108 17.8254 82.4964 17.8254Z"/>
<path fill="#0C608E" d="M98.3764 8.394C99.4833 8.394 100.487 8.65229 101.387 9.16887C102.302 9.6707 103.018 10.3865 103.535 11.3164C104.051 12.2315 104.31 13.3015 104.31 14.5266C104.31 15.7516 104.051 16.8291 103.535 17.7589C103.018 18.674 102.302 19.3899 101.387 19.9064C100.487 20.4083 99.4833 20.6592 98.3764 20.6592C96.738 20.6592 95.4909 20.1426 94.6348 19.1094V20.4821H91.336V4.05469H94.7898V9.83305C95.6606 8.87368 96.8561 8.394 98.3764 8.394ZM97.7786 17.8254C98.6642 17.8254 99.3874 17.5302 99.9482 16.9398C100.524 16.3346 100.812 15.5302 100.812 14.5266C100.812 13.5229 100.524 12.7259 99.9482 12.1355C99.3874 11.5304 98.6642 11.2278 97.7786 11.2278C96.893 11.2278 96.1624 11.5304 95.5868 12.1355C95.0259 12.7259 94.7455 13.5229 94.7455 14.5266C94.7455 15.5302 95.0259 16.3346 95.5868 16.9398C96.1624 17.5302 96.893 17.8254 97.7786 17.8254Z"/>
<path fill="#0C608E" d="M111.231 8.394C113.076 8.394 114.493 8.83678 115.482 9.72236C116.471 10.5932 116.965 11.9142 116.965 13.6853V20.4821H113.733V18.9987C113.084 20.1057 111.873 20.6592 110.102 20.6592C109.187 20.6592 108.39 20.5042 107.711 20.1943C107.047 19.8843 106.538 19.4563 106.184 18.9102C105.829 18.3641 105.652 17.7442 105.652 17.0505C105.652 15.9435 106.066 15.0727 106.892 14.438C107.733 13.8034 109.025 13.486 110.766 13.486H113.512C113.512 12.7333 113.283 12.1577 112.825 11.7592C112.368 11.3459 111.682 11.1393 110.766 11.1393C110.132 11.1393 109.504 11.2426 108.885 11.4492C108.279 11.6411 107.763 11.9068 107.335 12.2462L106.095 9.83305C106.744 9.37551 107.519 9.02128 108.42 8.77037C109.335 8.51945 110.272 8.394 111.231 8.394ZM110.966 18.3346C111.556 18.3346 112.08 18.2017 112.538 17.936C112.995 17.6556 113.32 17.2497 113.512 16.7184V15.5007H111.143C109.726 15.5007 109.017 15.9656 109.017 16.8955C109.017 17.3383 109.187 17.6925 109.527 17.9582C109.881 18.2091 110.361 18.3346 110.966 18.3346Z"/>
<path fill="#0C608E" d="M120.091 4.05469H123.545V20.4821H120.091V4.05469Z"/>
<path fill="#0C608E" d="M141.207 4.98454V20.4821H137.621V14.1281H130.58V20.4821H126.994V4.98454H130.58V11.095H137.621V4.98454H141.207Z"/>
<path fill="#0C608E" d="M156.298 14.5709C156.298 14.6151 156.276 14.9251 156.231 15.5007H147.221C147.383 16.2387 147.767 16.8217 148.372 17.2497C148.977 17.6778 149.73 17.8918 150.63 17.8918C151.25 17.8918 151.796 17.8032 152.269 17.6261C152.756 17.4342 153.206 17.139 153.619 16.7405L155.457 18.7331C154.335 20.0171 152.697 20.6592 150.542 20.6592C149.199 20.6592 148.01 20.4009 146.977 19.8843C145.944 19.353 145.147 18.6224 144.586 17.6925C144.025 16.7627 143.745 15.7074 143.745 14.5266C143.745 13.3606 144.018 12.3127 144.564 11.3828C145.125 10.4382 145.885 9.7076 146.844 9.19101C147.819 8.65967 148.903 8.394 150.099 8.394C151.265 8.394 152.32 8.64491 153.265 9.14673C154.209 9.64856 154.947 10.3718 155.479 11.3164C156.025 12.2462 156.298 13.3311 156.298 14.5709ZM150.121 11.0064C149.339 11.0064 148.682 11.2278 148.151 11.6706C147.619 12.1134 147.295 12.7185 147.176 13.486H153.043C152.925 12.7333 152.601 12.1355 152.069 11.6928C151.538 11.2352 150.888 11.0064 150.121 11.0064Z"/>
<path fill="#0C608E" d="M163.077 8.394C164.922 8.394 166.339 8.83678 167.328 9.72236C168.317 10.5932 168.811 11.9142 168.811 13.6853V20.4821H165.579V18.9987C164.929 20.1057 163.719 20.6592 161.948 20.6592C161.033 20.6592 160.236 20.5042 159.557 20.1943C158.893 19.8843 158.384 19.4563 158.029 18.9102C157.675 18.3641 157.498 17.7442 157.498 17.0505C157.498 15.9435 157.911 15.0727 158.738 14.438C159.579 13.8034 160.871 13.486 162.612 13.486H165.358C165.358 12.7333 165.129 12.1577 164.671 11.7592C164.214 11.3459 163.527 11.1393 162.612 11.1393C161.978 11.1393 161.35 11.2426 160.73 11.4492C160.125 11.6411 159.609 11.9068 159.181 12.2462L157.941 9.83305C158.59 9.37551 159.365 9.02128 160.265 8.77037C161.181 8.51945 162.118 8.394 163.077 8.394ZM162.812 18.3346C163.402 18.3346 163.926 18.2017 164.383 17.936C164.841 17.6556 165.166 17.2497 165.358 16.7184V15.5007H162.989C161.572 15.5007 160.863 15.9656 160.863 16.8955C160.863 17.3383 161.033 17.6925 161.372 17.9582C161.727 18.2091 162.206 18.3346 162.812 18.3346Z"/>
<path fill="#0C608E" d="M171.937 4.05469H175.391V20.4821H171.937V4.05469Z"/>
<path fill="#0C608E" d="M187.143 19.9064C186.804 20.1574 186.383 20.3492 185.881 20.4821C185.394 20.6001 184.878 20.6592 184.332 20.6592C182.915 20.6592 181.815 20.2976 181.033 19.5744C180.265 18.8511 179.882 17.7885 179.882 16.3863V11.4935H178.044V8.83678H179.882V5.93653H183.335V8.83678H186.302V11.4935H183.335V16.342C183.335 16.8438 183.461 17.235 183.712 17.5154C183.977 17.7811 184.346 17.9139 184.819 17.9139C185.365 17.9139 185.83 17.7663 186.213 17.4711L187.143 19.9064Z"/>
<path fill="#0C608E" d="M196.322 8.394C197.798 8.394 198.986 8.83678 199.886 9.72236C200.801 10.6079 201.259 11.9215 201.259 13.6632V20.4821H197.805V14.1945C197.805 13.2499 197.598 12.5488 197.185 12.0913C196.772 11.619 196.174 11.3828 195.392 11.3828C194.521 11.3828 193.827 11.6559 193.311 12.202C192.794 12.7333 192.536 13.5303 192.536 14.593V20.4821H189.082V4.05469H192.536V9.81091C192.993 9.35337 193.547 9.00652 194.196 8.77037C194.846 8.51945 195.554 8.394 196.322 8.394Z"/>
<path fill="#0C608E" d="M54.5987 36.745C54.0611 36.745 53.5392 36.6786 53.0332 36.5457C52.5271 36.4129 52.116 36.2358 51.7997 36.0144L52.4164 34.6291C52.7137 34.8252 53.0585 34.9833 53.4506 35.1035C53.8428 35.2237 54.2287 35.2838 54.6082 35.2838C55.3293 35.2838 55.6899 35.1035 55.6899 34.743C55.6899 34.5532 55.5855 34.414 55.3768 34.3255C55.1743 34.2306 54.8454 34.1326 54.39 34.0313C53.8903 33.9238 53.4728 33.81 53.1375 33.6898C52.8023 33.5633 52.5145 33.364 52.2741 33.092C52.0337 32.82 51.9135 32.4531 51.9135 31.9914C51.9135 31.5865 52.0242 31.2228 52.2456 30.9002C52.467 30.5713 52.796 30.3119 53.2324 30.1222C53.6752 29.9324 54.216 29.8375 54.8549 29.8375C55.2914 29.8375 55.7215 29.8881 56.1453 29.9893C56.5691 30.0842 56.9423 30.2265 57.2649 30.4163L56.6861 31.8111C56.0536 31.4695 55.44 31.2987 54.8454 31.2987C54.4722 31.2987 54.2002 31.3557 54.0294 31.4695C53.8586 31.577 53.7732 31.7194 53.7732 31.8965C53.7732 32.0736 53.8745 32.2064 54.0769 32.295C54.2793 32.3835 54.6051 32.4753 55.0542 32.5702C55.5602 32.6777 55.9777 32.7947 56.3066 32.9212C56.6419 33.0414 56.9297 33.2375 57.1701 33.5095C57.4167 33.7752 57.5401 34.1389 57.5401 34.6006C57.5401 34.9992 57.4294 35.3597 57.208 35.6823C56.9866 36.0049 56.6545 36.2643 56.2117 36.4603C55.7689 36.6501 55.2313 36.745 54.5987 36.745Z"/>
<path fill="#0C608E" d="M63.1805 36.745C62.4784 36.745 61.8458 36.5963 61.2829 36.299C60.7262 36.0017 60.2866 35.5906 59.964 35.0656C59.6477 34.5406 59.4896 33.9491 59.4896 33.2913C59.4896 32.6334 59.6477 32.042 59.964 31.517C60.2866 30.9919 60.7262 30.5808 61.2829 30.2835C61.8458 29.9862 62.4784 29.8375 63.1805 29.8375C63.8826 29.8375 64.512 29.9862 65.0687 30.2835C65.6317 30.5808 66.0713 30.9919 66.3876 31.517C66.7102 32.042 66.8715 32.6334 66.8715 33.2913C66.8715 33.9491 66.7102 34.5406 66.3876 35.0656C66.0713 35.5906 65.6317 36.0017 65.0687 36.299C64.512 36.5963 63.8826 36.745 63.1805 36.745ZM63.1805 35.1889C63.5158 35.1889 63.8194 35.1098 64.0914 34.9517C64.3634 34.7936 64.5785 34.5722 64.7366 34.2875C64.8947 33.9966 64.9738 33.6645 64.9738 33.2913C64.9738 32.9181 64.8947 32.5891 64.7366 32.3045C64.5785 32.0135 64.3634 31.7889 64.0914 31.6308C63.8194 31.4727 63.5158 31.3936 63.1805 31.3936C62.8453 31.3936 62.5416 31.4727 62.2696 31.6308C61.9976 31.7889 61.7826 32.0135 61.6244 32.3045C61.4663 32.5891 61.3872 32.9181 61.3872 33.2913C61.3872 33.6645 61.4663 33.9966 61.6244 34.2875C61.7826 34.5722 61.9976 34.7936 62.2696 34.9517C62.5416 35.1098 62.8453 35.1889 63.1805 35.1889Z"/>
<path fill="#0C608E" d="M69.2787 29.9704H71.1573V35.1225H74.3264V36.6122H69.2787V29.9704Z"/>
<path fill="#0C608E" d="M79.493 36.745C78.5062 36.745 77.7376 36.4762 77.1873 35.9385C76.6433 35.4008 76.3713 34.6386 76.3713 33.6518V29.9704H78.25V33.5949C78.25 34.6576 78.6706 35.1889 79.5119 35.1889C80.3469 35.1889 80.7644 34.6576 80.7644 33.5949V29.9704H82.6146V33.6518C82.6146 34.6386 82.3394 35.4008 81.7891 35.9385C81.2451 36.4762 80.4797 36.745 79.493 36.745Z"/>
<path fill="#0C608E" d="M86.6224 31.46H84.5824V29.9704H90.5315V31.46H88.501V36.6122H86.6224V31.46Z"/>
<path fill="#0C608E" d="M92.6547 29.9704H94.5334V36.6122H92.6547V29.9704Z"/>
<path fill="#0C608E" d="M100.643 36.745C99.9404 36.745 99.3079 36.5963 98.7449 36.299C98.1883 36.0017 97.7486 35.5906 97.426 35.0656C97.1098 34.5406 96.9516 33.9491 96.9516 33.2913C96.9516 32.6334 97.1098 32.042 97.426 31.517C97.7486 30.9919 98.1883 30.5808 98.7449 30.2835C99.3079 29.9862 99.9404 29.8375 100.643 29.8375C101.345 29.8375 101.974 29.9862 102.531 30.2835C103.094 30.5808 103.533 30.9919 103.85 31.517C104.172 32.042 104.334 32.6334 104.334 33.2913C104.334 33.9491 104.172 34.5406 103.85 35.0656C103.533 35.5906 103.094 36.0017 102.531 36.299C101.974 36.5963 101.345 36.745 100.643 36.745ZM100.643 35.1889C100.978 35.1889 101.281 35.1098 101.553 34.9517C101.825 34.7936 102.041 34.5722 102.199 34.2875C102.357 33.9966 102.436 33.6645 102.436 33.2913C102.436 32.9181 102.357 32.5891 102.199 32.3045C102.041 32.0135 101.825 31.7889 101.553 31.6308C101.281 31.4727 100.978 31.3936 100.643 31.3936C100.307 31.3936 100.004 31.4727 99.7317 31.6308C99.4597 31.7889 99.2446 32.0135 99.0865 32.3045C98.9283 32.5891 98.8493 32.9181 98.8493 33.2913C98.8493 33.6645 98.9283 33.9966 99.0865 34.2875C99.2446 34.5722 99.4597 34.7936 99.7317 34.9517C100.004 35.1098 100.307 35.1889 100.643 35.1889Z"/>
<path fill="#0C608E" d="M113.06 29.9704V36.6122H111.513L108.581 33.073V36.6122H106.741V29.9704H108.287L111.219 33.5095V29.9704H113.06Z"/>
<path fill="#0C608E" d="M118.142 36.745C117.605 36.745 117.083 36.6786 116.577 36.5457C116.071 36.4129 115.66 36.2358 115.343 36.0144L115.96 34.6291C116.257 34.8252 116.602 34.9833 116.994 35.1035C117.387 35.2237 117.772 35.2838 118.152 35.2838C118.873 35.2838 119.234 35.1035 119.234 34.743C119.234 34.5532 119.129 34.414 118.92 34.3255C118.718 34.2306 118.389 34.1326 117.934 34.0313C117.434 33.9238 117.017 33.81 116.681 33.6898C116.346 33.5633 116.058 33.364 115.818 33.092C115.577 32.82 115.457 32.4531 115.457 31.9914C115.457 31.5865 115.568 31.2228 115.789 30.9002C116.011 30.5713 116.34 30.3119 116.776 30.1222C117.219 29.9324 117.76 29.8375 118.399 29.8375C118.835 29.8375 119.265 29.8881 119.689 29.9893C120.113 30.0842 120.486 30.2265 120.809 30.4163L120.23 31.8111C119.597 31.4695 118.984 31.2987 118.389 31.2987C118.016 31.2987 117.744 31.3557 117.573 31.4695C117.402 31.577 117.317 31.7194 117.317 31.8965C117.317 32.0736 117.418 32.2064 117.621 32.295C117.823 32.3835 118.149 32.4753 118.598 32.5702C119.104 32.6777 119.521 32.7947 119.85 32.9212C120.186 33.0414 120.473 33.2375 120.714 33.5095C120.96 33.7752 121.084 34.1389 121.084 34.6006C121.084 34.9992 120.973 35.3597 120.752 35.6823C120.53 36.0049 120.198 36.2643 119.755 36.4603C119.313 36.6501 118.775 36.745 118.142 36.745Z"/>
</svg>